<svg xmlns="http://www.w3.org/2000/svg"
 xmlns:xlink="http://www.w3.org/1999/xlink"
 width="122px" height="42px"  viewBox="0 0 122 42">
<path fill-rule="evenodd"  fill="#212121"
 d="M61.0,1.0 C72.045654,1.0 81.0,9.954346 81.0,21.0 C81.0,32.045654 72.045654,41.000244 61.0,41.000244 C49.954346,41.000244 41.0,32.045654 41.0,21.0 C41.0,9.954346 49.954346,1.0 61.0,1.0 ZM106.0,6.0 C114.2843,6.0 121.0,12.715576 121.0,21.0 C121.0,29.28418 114.2843,35.999756 106.0,35.999756 C97.71576,35.999756 91.0,29.28418 91.0,21.0 C91.0,12.715576 97.71576,6.0 106.0,6.0 ZM16.0,6.0 C24.28424,6.0 31.0,12.715576 31.0,21.0 C31.0,29.28418 24.28424,35.999756 16.0,35.999756 C7.7156982,35.999756 1.0,29.28418 1.0,21.0 C1.0,12.715576 7.7156982,6.0 16.0,6.0 Z"/>
</svg>